<svg width="32" height="32" viewBox="0 0 32 32" fill="none" xmlns="http://www.w3.org/2000/svg">
<g id="perm_contact_calendar">
<mask id="mask0_57_401" style="mask-type:alpha" maskUnits="userSpaceOnUse" x="0" y="0" width="32" height="32">
<rect id="Bounding box" width="32" height="32" fill="#D9D9D9"/>
</mask>
<g mask="url(#mask0_57_401)">
<path id="perm_contact_calendar_2" d="M16 24.0001C14.7556 24.0001 13.5667 24.1945 12.4333 24.5834C11.3 24.9723 10.2667 25.5556 9.33333 26.3334V26.6667H22.6667V26.3334C21.7333 25.5556 20.7 24.9723 19.5667 24.5834C18.4333 24.1945 17.2444 24.0001 16 24.0001ZM6.66667 25.1334C7.86667 23.9556 9.26111 23.0279 10.85 22.3501C12.4389 21.6723 14.1556 21.3334 16 21.3334C17.8444 21.3334 19.5611 21.6723 21.15 22.3501C22.7389 23.0279 24.1333 23.9556 25.3333 25.1334V8.00008H6.66667V25.1334ZM16 18.6667C14.7111 18.6667 13.6111 18.2112 12.7 17.3001C11.7889 16.389 11.3333 15.289 11.3333 14.0001C11.3333 12.7112 11.7889 11.6112 12.7 10.7001C13.6111 9.78897 14.7111 9.33341 16 9.33341C17.2889 9.33341 18.3889 9.78897 19.3 10.7001C20.2111 11.6112 20.6667 12.7112 20.6667 14.0001C20.6667 15.289 20.2111 16.389 19.3 17.3001C18.3889 18.2112 17.2889 18.6667 16 18.6667ZM16 16.0001C16.5556 16.0001 17.0278 15.8056 17.4167 15.4167C17.8056 15.0279 18 14.5556 18 14.0001C18 13.4445 17.8056 12.9723 17.4167 12.5834C17.0278 12.1945 16.5556 12.0001 16 12.0001C15.4444 12.0001 14.9722 12.1945 14.5833 12.5834C14.1944 12.9723 14 13.4445 14 14.0001C14 14.5556 14.1944 15.0279 14.5833 15.4167C14.9722 15.8056 15.4444 16.0001 16 16.0001ZM6.66667 29.3334C5.93333 29.3334 5.30556 29.0723 4.78333 28.5501C4.26111 28.0279 4 27.4001 4 26.6667V8.00008C4 7.26675 4.26111 6.63897 4.78333 6.11675C5.30556 5.59453 5.93333 5.33341 6.66667 5.33341H8V2.66675H10.6667V5.33341H21.3333V2.66675H24V5.33341H25.3333C26.0667 5.33341 26.6944 5.59453 27.2167 6.11675C27.7389 6.63897 28 7.26675 28 8.00008V26.6667C28 27.4001 27.7389 28.0279 27.2167 28.5501C26.6944 29.0723 26.0667 29.3334 25.3333 29.3334H6.66667Z" fill="white"/>
</g>
</g>
</svg>
