<svg width="33" height="32" viewBox="0 0 33 32" fill="none" xmlns="http://www.w3.org/2000/svg">
<g id="contact_emergency">
<mask id="mask0_57_389" style="mask-type:alpha" maskUnits="userSpaceOnUse" x="0" y="0" width="33" height="32">
<rect id="Bounding box" x="0.5" width="32" height="32" fill="#D9D9D9"/>
</mask>
<g mask="url(#mask0_57_389)">
<path id="contact_emergency_2" d="M23.5 16H25.5V13.7333L27.4667 14.8667L28.4667 13.1333L26.5 12L28.4667 10.8667L27.4667 9.13333L25.5 10.2667V8H23.5V10.2667L21.5333 9.13333L20.5333 10.8667L22.5 12L20.5333 13.1333L21.5333 14.8667L23.5 13.7333V16ZM3.16667 28C2.43333 28 1.80556 27.7389 1.28333 27.2167C0.761111 26.6944 0.5 26.0667 0.5 25.3333V6.66667C0.5 5.93333 0.761111 5.30556 1.28333 4.78333C1.80556 4.26111 2.43333 4 3.16667 4H29.8333C30.5667 4 31.1944 4.26111 31.7167 4.78333C32.2389 5.30556 32.5 5.93333 32.5 6.66667V25.3333C32.5 26.0667 32.2389 26.6944 31.7167 27.2167C31.1944 27.7389 30.5667 28 29.8333 28H3.16667ZM21.7 25.3333H29.8333V6.66667H3.16667V25.3333H3.3C4.23333 23.6667 5.52222 22.3611 7.16667 21.4167C8.81111 20.4722 10.5889 20 12.5 20C14.4111 20 16.1889 20.4722 17.8333 21.4167C19.4778 22.3611 20.7667 23.6667 21.7 25.3333ZM12.5 18.6667C13.6111 18.6667 14.5556 18.2778 15.3333 17.5C16.1111 16.7222 16.5 15.7778 16.5 14.6667C16.5 13.5556 16.1111 12.6111 15.3333 11.8333C14.5556 11.0556 13.6111 10.6667 12.5 10.6667C11.3889 10.6667 10.4444 11.0556 9.66667 11.8333C8.88889 12.6111 8.5 13.5556 8.5 14.6667C8.5 15.7778 8.88889 16.7222 9.66667 17.5C10.4444 18.2778 11.3889 18.6667 12.5 18.6667ZM6.56667 25.3333H18.4333C17.6778 24.4889 16.7833 23.8333 15.75 23.3667C14.7167 22.9 13.6333 22.6667 12.5 22.6667C11.3667 22.6667 10.2889 22.9 9.26667 23.3667C8.24444 23.8333 7.34444 24.4889 6.56667 25.3333ZM12.5 16C12.1222 16 11.8056 15.8722 11.55 15.6167C11.2944 15.3611 11.1667 15.0444 11.1667 14.6667C11.1667 14.2889 11.2944 13.9722 11.55 13.7167C11.8056 13.4611 12.1222 13.3333 12.5 13.3333C12.8778 13.3333 13.1944 13.4611 13.45 13.7167C13.7056 13.9722 13.8333 14.2889 13.8333 14.6667C13.8333 15.0444 13.7056 15.3611 13.45 15.6167C13.1944 15.8722 12.8778 16 12.5 16Z" fill="white"/>
</g>
</g>
</svg>
