<svg width="32" height="32" viewBox="0 0 32 32" fill="none" xmlns="http://www.w3.org/2000/svg">
<g id="alternate_email">
<mask id="mask0_57_455" style="mask-type:alpha" maskUnits="userSpaceOnUse" x="0" y="0" width="32" height="32">
<rect id="Bounding box" width="32" height="32" fill="#D9D9D9"/>
</mask>
<g mask="url(#mask0_57_455)">
<path id="alternate_email_2" d="M16 29C14.2021 29 12.5125 28.6582 10.9312 27.9746C9.34986 27.2909 7.97433 26.3632 6.8046 25.1912C5.63487 24.0193 4.70833 22.6435 4.025 21.0638C3.34167 19.484 3 17.7961 3 16C3 14.2021 3.34181 12.5125 4.02543 10.9312C4.70906 9.34986 5.63683 7.97433 6.80877 6.8046C7.9807 5.63487 9.35652 4.70833 10.9362 4.025C12.516 3.34167 14.2039 3 16 3C17.7979 3 19.4875 3.34181 21.0688 4.02543C22.6501 4.70906 24.0257 5.63683 25.1954 6.80877C26.3651 7.9807 27.2917 9.35652 27.975 10.9362C28.6583 12.516 29 14.2039 29 16V17.8657C29 19.1309 28.5611 20.2085 27.6833 21.0984C26.8056 21.9884 25.7333 22.4333 24.4667 22.4333C23.7 22.4333 22.9833 22.2639 22.3167 21.925C21.65 21.5861 21.0889 21.1111 20.6333 20.5C20.0222 21.1333 19.3139 21.6139 18.5083 21.9417C17.7028 22.2694 16.8682 22.4333 16.0046 22.4333C14.2126 22.4333 12.6917 21.8083 11.4417 20.5583C10.1917 19.3083 9.56667 17.7889 9.56667 16C9.56667 14.2111 10.1917 12.6917 11.4417 11.4417C12.6917 10.1917 14.2111 9.56667 16 9.56667C17.7889 9.56667 19.3083 10.1917 20.5583 11.4417C21.8083 12.6917 22.4333 14.2095 22.4333 15.995V17.8667C22.4333 18.4444 22.6278 18.9333 23.0167 19.3333C23.4056 19.7333 23.8889 19.9333 24.4667 19.9333C25.0444 19.9333 25.5278 19.7333 25.9167 19.3333C26.3056 18.9333 26.5 18.4444 26.5 17.8667V16C26.5 13.0778 25.4806 10.5972 23.4417 8.55833C21.4028 6.51944 18.9222 5.5 16 5.5C13.0778 5.5 10.5972 6.51944 8.55833 8.55833C6.51944 10.5972 5.5 13.0778 5.5 16C5.5 18.9222 6.51944 21.4028 8.55833 23.4417C10.5972 25.4806 13.0778 26.5 16 26.5H22.5667V29H16ZM15.9961 19.9333C17.0876 19.9333 18.0167 19.5513 18.7833 18.7873C19.55 18.0232 19.9333 17.0954 19.9333 16.0039C19.9333 14.9124 19.5513 13.9833 18.7873 13.2167C18.0232 12.45 17.0954 12.0667 16.0039 12.0667C14.9124 12.0667 13.9833 12.4487 13.2167 13.2127C12.45 13.9768 12.0667 14.9046 12.0667 15.9961C12.0667 17.0876 12.4487 18.0167 13.2127 18.7833C13.9768 19.55 14.9046 19.9333 15.9961 19.9333Z" fill="white"/>
</g>
</g>
</svg>
