<svg width="48" height="48" viewBox="0 0 48 48" fill="none" xmlns="http://www.w3.org/2000/svg">
<g id="share_location">
<mask id="mask0_49_35" style="mask-type:alpha" maskUnits="userSpaceOnUse" x="0" y="0" width="48" height="48">
<rect id="Bounding box" width="48" height="48" fill="#D9D9D9"/>
</mask>
<g mask="url(#mask0_49_35)">
<path id="share_location_2" d="M25.95 43.9001V39.9001C27.35 39.7001 28.7083 39.3168 30.025 38.7501C31.3417 38.1834 32.5833 37.4668 33.75 36.6001L36.65 39.5001C35.0833 40.7334 33.4 41.7251 31.6 42.4751C29.8 43.2251 27.9167 43.7001 25.95 43.9001ZM39.45 36.6001L36.65 33.8001C37.5167 32.7001 38.2167 31.4918 38.75 30.1751C39.2833 28.8584 39.65 27.4668 39.85 26.0001H43.95C43.6833 28.0668 43.175 29.9918 42.425 31.7751C41.675 33.5584 40.6833 35.1668 39.45 36.6001ZM39.85 22.0001C39.65 20.5001 39.2833 19.0918 38.75 17.7751C38.2167 16.4584 37.5167 15.2668 36.65 14.2001L39.45 11.4001C40.7167 12.8668 41.7417 14.5001 42.525 16.3001C43.3083 18.1001 43.7833 20.0001 43.95 22.0001H39.85ZM21.95 43.9001C16.85 43.3001 12.5917 41.1168 9.17499 37.3501C5.75832 33.5834 4.04999 29.1334 4.04999 24.0001C4.04999 18.8334 5.75832 14.3668 9.17499 10.6001C12.5917 6.83343 16.85 4.66676 21.95 4.1001V8.1001C17.95 8.66676 14.6333 10.4501 12 13.4501C9.36665 16.4501 8.04999 19.9668 8.04999 24.0001C8.04999 28.0334 9.36665 31.5418 12 34.5251C14.6333 37.5084 17.95 39.3001 21.95 39.9001V43.9001ZM33.85 11.4001C32.65 10.5001 31.3833 9.76676 30.05 9.2001C28.7167 8.63343 27.35 8.26676 25.95 8.1001V4.1001C27.9167 4.26676 29.8 4.7251 31.6 5.4751C33.4 6.2251 35.0833 7.23343 36.65 8.5001L33.85 11.4001ZM24 34.0001C22.0667 32.3668 20.25 30.6168 18.55 28.7501C16.85 26.8834 16 24.7001 16 22.2001C16 19.9334 16.775 18.0001 18.325 16.4001C19.875 14.8001 21.7667 14.0001 24 14.0001C26.2333 14.0001 28.125 14.8001 29.675 16.4001C31.225 18.0001 32 19.9334 32 22.2001C32 24.7001 31.15 26.8834 29.45 28.7501C27.75 30.6168 25.9333 32.3668 24 34.0001ZM24 24.0001C24.6 24.0001 25.1083 23.7918 25.525 23.3751C25.9417 22.9584 26.15 22.4501 26.15 21.8501C26.15 21.2834 25.9417 20.7834 25.525 20.3501C25.1083 19.9168 24.6 19.7001 24 19.7001C23.4 19.7001 22.8917 19.9168 22.475 20.3501C22.0583 20.7834 21.85 21.2834 21.85 21.8501C21.85 22.4501 22.0583 22.9584 22.475 23.3751C22.8917 23.7918 23.4 24.0001 24 24.0001Z" fill="#1A1C1E"/>
</g>
</g>
</svg>
