<svg width="32" height="32" viewBox="0 0 32 32" fill="none" xmlns="http://www.w3.org/2000/svg">
<g id="distance">
<mask id="mask0_57_426" style="mask-type:alpha" maskUnits="userSpaceOnUse" x="0" y="0" width="32" height="32">
<rect id="Bounding box" width="32" height="32" fill="#D9D9D9"/>
</mask>
<g mask="url(#mask0_57_426)">
<path id="distance_2" d="M16 29.3334C13.6444 29.3334 11.7222 28.9612 10.2333 28.2167C8.74444 27.4723 8 26.5112 8 25.3334C8 24.5556 8.32222 23.8779 8.96667 23.3001C9.61111 22.7223 10.5 22.2667 11.6333 21.9334L12.4 24.4667C12.0222 24.5779 11.6778 24.7167 11.3667 24.8834C11.0556 25.0501 10.8444 25.2001 10.7333 25.3334C11.0222 25.689 11.6889 26.0001 12.7333 26.2667C13.7778 26.5334 14.8667 26.6667 16 26.6667C17.1333 26.6667 18.2278 26.5334 19.2833 26.2667C20.3389 26.0001 21.0111 25.689 21.3 25.3334C21.1889 25.2001 20.9778 25.0501 20.6667 24.8834C20.3556 24.7167 20.0111 24.5779 19.6333 24.4667L20.4 21.9334C21.5333 22.2667 22.4167 22.7223 23.05 23.3001C23.6833 23.8779 24 24.5556 24 25.3334C24 26.5112 23.2556 27.4723 21.7667 28.2167C20.2778 28.9612 18.3556 29.3334 16 29.3334ZM16 20.4334C16.4 19.7001 16.8222 19.0279 17.2667 18.4167C17.7111 17.8056 18.1444 17.2223 18.5667 16.6667C19.3889 15.6001 20.0444 14.639 20.5333 13.7834C21.0222 12.9279 21.2667 11.8667 21.2667 10.6001C21.2667 9.13341 20.7556 7.88897 19.7333 6.86675C18.7111 5.84453 17.4667 5.33341 16 5.33341C14.5333 5.33341 13.2889 5.84453 12.2667 6.86675C11.2444 7.88897 10.7333 9.13341 10.7333 10.6001C10.7333 11.8667 10.9778 12.9279 11.4667 13.7834C11.9556 14.639 12.6111 15.6001 13.4333 16.6667C13.8556 17.2223 14.2889 17.8056 14.7333 18.4167C15.1778 19.0279 15.6 19.7001 16 20.4334ZM16 25.3334C15.7556 25.3334 15.5333 25.2612 15.3333 25.1167C15.1333 24.9723 14.9889 24.7779 14.9 24.5334C14.3889 22.9556 13.7444 21.6334 12.9667 20.5667C12.1889 19.5001 11.4333 18.4779 10.7 17.5001C9.98889 16.5223 9.37222 15.5112 8.85 14.4667C8.32778 13.4223 8.06667 12.1334 8.06667 10.6001C8.06667 8.37786 8.83333 6.50008 10.3667 4.96675C11.9 3.43341 13.7778 2.66675 16 2.66675C18.2222 2.66675 20.1 3.43341 21.6333 4.96675C23.1667 6.50008 23.9333 8.37786 23.9333 10.6001C23.9333 12.1334 23.6778 13.4223 23.1667 14.4667C22.6556 15.5112 22.0333 16.5223 21.3 17.5001C20.5889 18.4779 19.8389 19.5001 19.05 20.5667C18.2611 21.6334 17.6111 22.9556 17.1 24.5334C17.0111 24.7779 16.8667 24.9723 16.6667 25.1167C16.4667 25.2612 16.2444 25.3334 16 25.3334ZM16 13.4334C16.7778 13.4334 17.4444 13.1556 18 12.6001C18.5556 12.0445 18.8333 11.3779 18.8333 10.6001C18.8333 9.8223 18.5556 9.15564 18 8.60008C17.4444 8.04453 16.7778 7.76675 16 7.76675C15.2222 7.76675 14.5556 8.04453 14 8.60008C13.4444 9.15564 13.1667 9.8223 13.1667 10.6001C13.1667 11.3779 13.4444 12.0445 14 12.6001C14.5556 13.1556 15.2222 13.4334 16 13.4334Z" fill="white"/>
</g>
</g>
</svg>
