<svg width="48" height="48" viewBox="0 0 48 48" fill="none" xmlns="http://www.w3.org/2000/svg">
<g id="mms">
<mask id="mask0_7_892" style="mask-type:alpha" maskUnits="userSpaceOnUse" x="0" y="0" width="48" height="48">
<rect id="Bounding box" width="48" height="48" fill="#D9D9D9"/>
</mask>
<g mask="url(#mask0_7_892)">
<path id="mms_2" d="M12 28H36L28.5 18L22.5 26L18 20L12 28ZM4 44V8C4 6.9 4.39167 5.95833 5.175 5.175C5.95833 4.39167 6.9 4 8 4H40C41.1 4 42.0417 4.39167 42.825 5.175C43.6083 5.95833 44 6.9 44 8V32C44 33.1 43.6083 34.0417 42.825 34.825C42.0417 35.6083 41.1 36 40 36H12L4 44ZM10.3 32H40V8H8V34.25L10.3 32Z" fill="#EEEDF1"/>
</g>
</g>
</svg>
