<svg width="32" height="32" viewBox="0 0 32 32" fill="none" xmlns="http://www.w3.org/2000/svg">
<g id="contract">
<mask id="mask0_7_930" style="mask-type:alpha" maskUnits="userSpaceOnUse" x="0" y="0" width="32" height="32">
<rect id="Bounding box" width="32" height="32" fill="#D9D9D9"/>
</mask>
<g mask="url(#mask0_7_930)">
<path id="contract_2" d="M8 29.3333C6.88889 29.3333 5.94444 28.9444 5.16667 28.1666C4.38889 27.3888 4 26.4444 4 25.3333V21.3333H8V2.66663H28V25.3333C28 26.4444 27.6111 27.3888 26.8333 28.1666C26.0556 28.9444 25.1111 29.3333 24 29.3333H8ZM24 26.6666C24.3778 26.6666 24.6944 26.5388 24.95 26.2833C25.2056 26.0277 25.3333 25.7111 25.3333 25.3333V5.33329H10.6667V21.3333H22.6667V25.3333C22.6667 25.7111 22.7944 26.0277 23.05 26.2833C23.3056 26.5388 23.6222 26.6666 24 26.6666ZM12 12V9.33329H24V12H12ZM12 16V13.3333H24V16H12ZM8 26.6666H20V24H6.66667V25.3333C6.66667 25.7111 6.79444 26.0277 7.05 26.2833C7.30556 26.5388 7.62222 26.6666 8 26.6666ZM8 26.6666H6.66667H20H8Z" fill="#1A1C1E"/>
</g>
</g>
</svg>
