<svg width="37" height="36" viewBox="0 0 37 36" fill="none" xmlns="http://www.w3.org/2000/svg">
<mask id="mask0_124_181" style="mask-type:alpha" maskUnits="userSpaceOnUse" x="0" y="0" width="37" height="36">
<rect x="0.5" width="36" height="36" fill="#D9D9D9"/>
</mask>
<g mask="url(#mask0_124_181)">
<path d="M21.875 32.1C21.3 32.675 20.5875 32.9625 19.7375 32.9625C18.8875 32.9625 18.175 32.675 17.6 32.1L4.4 18.9C4.125 18.625 3.90625 18.3 3.74375 17.925C3.58125 17.55 3.5 17.15 3.5 16.725V6C3.5 5.175 3.79375 4.46875 4.38125 3.88125C4.96875 3.29375 5.675 3 6.5 3H17.225C17.65 3 18.05 3.08125 18.425 3.24375C18.8 3.40625 19.125 3.625 19.4 3.9L32.6 17.1375C33.175 17.7125 33.4625 18.4188 33.4625 19.2563C33.4625 20.0938 33.175 20.8 32.6 21.375L21.875 32.1ZM19.7375 30L30.4625 19.275L17.225 6H6.5V16.725L19.7375 30ZM10.25 12C10.875 12 11.4062 11.7813 11.8438 11.3438C12.2813 10.9062 12.5 10.375 12.5 9.75C12.5 9.125 12.2813 8.59375 11.8438 8.15625C11.4062 7.71875 10.875 7.5 10.25 7.5C9.625 7.5 9.09375 7.71875 8.65625 8.15625C8.21875 8.59375 8 9.125 8 9.75C8 10.375 8.21875 10.9062 8.65625 11.3438C9.09375 11.7813 9.625 12 10.25 12Z" fill="#1C1B1F"/>
</g>
</svg>
