<svg width="36" height="36" viewBox="0 0 36 36" fill="none" xmlns="http://www.w3.org/2000/svg">
<g id="engineering">
<mask id="mask0_96_233" style="mask-type:alpha" maskUnits="userSpaceOnUse" x="0" y="0" width="36" height="36">
<rect id="Bounding box" width="36" height="36" fill="#D9D9D9"/>
</mask>
<g mask="url(#mask0_96_233)">
<path id="engineering_2" d="M1.57501 31.5V27.3C1.57501 26.475 1.78751 25.7 2.21251 24.975C2.63751 24.25 3.22501 23.7 3.97501 23.325C5.25001 22.675 6.68751 22.125 8.28751 21.675C9.88751 21.225 11.65 21 13.575 21C15.5 21 17.2625 21.225 18.8625 21.675C20.4625 22.125 21.9 22.675 23.175 23.325C23.925 23.7 24.5125 24.25 24.9375 24.975C25.3625 25.7 25.575 26.475 25.575 27.3V31.5H1.57501ZM4.57501 28.5H22.575V27.3C22.575 27.025 22.5063 26.775 22.3688 26.55C22.2313 26.325 22.05 26.15 21.825 26.025C20.925 25.575 19.7688 25.125 18.3563 24.675C16.9438 24.225 15.35 24 13.575 24C11.8 24 10.2063 24.225 8.79376 24.675C7.38126 25.125 6.22501 25.575 5.32501 26.025C5.10001 26.15 4.91876 26.325 4.78126 26.55C4.64376 26.775 4.57501 27.025 4.57501 27.3V28.5ZM13.575 19.5C11.925 19.5 10.5125 18.9125 9.33751 17.7375C8.16251 16.5625 7.57501 15.15 7.57501 13.5H7.20001C6.97501 13.5 6.79376 13.4313 6.65626 13.2938C6.51876 13.1562 6.45001 12.975 6.45001 12.75C6.45001 12.525 6.51876 12.3438 6.65626 12.2063C6.79376 12.0688 6.97501 12 7.20001 12H7.57501C7.57501 10.875 7.85001 9.8625 8.40001 8.9625C8.95001 8.0625 9.67501 7.35 10.575 6.825V8.25C10.575 8.475 10.6438 8.65625 10.7813 8.79375C10.9188 8.93125 11.1 9 11.325 9C11.55 9 11.7313 8.93125 11.8688 8.79375C12.0063 8.65625 12.075 8.475 12.075 8.25V6.225C12.3 6.15 12.5375 6.09375 12.7875 6.05625C13.0375 6.01875 13.3 6 13.575 6C13.85 6 14.1125 6.01875 14.3625 6.05625C14.6125 6.09375 14.85 6.15 15.075 6.225V8.25C15.075 8.475 15.1438 8.65625 15.2813 8.79375C15.4188 8.93125 15.6 9 15.825 9C16.05 9 16.2313 8.93125 16.3688 8.79375C16.5063 8.65625 16.575 8.475 16.575 8.25V6.825C17.475 7.35 18.2 8.0625 18.75 8.9625C19.3 9.8625 19.575 10.875 19.575 12H19.95C20.175 12 20.3563 12.0688 20.4938 12.2063C20.6313 12.3438 20.7 12.525 20.7 12.75C20.7 12.975 20.6313 13.1562 20.4938 13.2938C20.3563 13.4313 20.175 13.5 19.95 13.5H19.575C19.575 15.15 18.9875 16.5625 17.8125 17.7375C16.6375 18.9125 15.225 19.5 13.575 19.5ZM13.575 16.5C14.4 16.5 15.1063 16.2063 15.6938 15.6187C16.2813 15.0312 16.575 14.325 16.575 13.5H10.575C10.575 14.325 10.8688 15.0312 11.4563 15.6187C12.0438 16.2063 12.75 16.5 13.575 16.5ZM24.825 22.5L24.6 21.375C24.45 21.325 24.3063 21.2687 24.1688 21.2062C24.0313 21.1437 23.9 21.05 23.775 20.925L22.725 21.3L21.975 19.95L22.8 19.2V18.3L21.975 17.55L22.725 16.2L23.775 16.575C23.875 16.475 24 16.3875 24.15 16.3125C24.3 16.2375 24.45 16.175 24.6 16.125L24.825 15H26.325L26.55 16.125C26.7 16.175 26.85 16.2375 27 16.3125C27.15 16.3875 27.275 16.475 27.375 16.575L28.425 16.2L29.175 17.55L28.35 18.3V19.2L29.175 19.95L28.425 21.3L27.375 20.925C27.25 21.05 27.1188 21.1437 26.9813 21.2062C26.8438 21.2687 26.7 21.325 26.55 21.375L26.325 22.5H24.825ZM25.575 19.875C25.875 19.875 26.1375 19.7625 26.3625 19.5375C26.5875 19.3125 26.7 19.05 26.7 18.75C26.7 18.45 26.5875 18.1875 26.3625 17.9625C26.1375 17.7375 25.875 17.625 25.575 17.625C25.275 17.625 25.0125 17.7375 24.7875 17.9625C24.5625 18.1875 24.45 18.45 24.45 18.75C24.45 19.05 24.5625 19.3125 24.7875 19.5375C25.0125 19.7625 25.275 19.875 25.575 19.875ZM28.275 15L27.975 13.425C27.75 13.35 27.5438 13.2563 27.3563 13.1438C27.1688 13.0312 27 12.9 26.85 12.75L25.275 13.275L24.225 11.475L25.5 10.35C25.45 10.225 25.425 10.125 25.425 10.05V9.45C25.425 9.375 25.45 9.275 25.5 9.15L24.225 8.025L25.275 6.225L26.85 6.75C27 6.6 27.1688 6.46875 27.3563 6.35625C27.5438 6.24375 27.75 6.15 27.975 6.075L28.275 4.5H30.375L30.675 6.075C30.9 6.15 31.1063 6.24375 31.2938 6.35625C31.4813 6.46875 31.65 6.6 31.8 6.75L33.375 6.225L34.425 8.025L33.15 9.15C33.2 9.275 33.225 9.375 33.225 9.45V10.05C33.225 10.125 33.2 10.225 33.15 10.35L34.425 11.475L33.375 13.275L31.8 12.75C31.65 12.9 31.4813 13.0312 31.2938 13.1438C31.1063 13.2563 30.9 13.35 30.675 13.425L30.375 15H28.275ZM29.325 11.625C29.85 11.625 30.2938 11.4438 30.6563 11.0813C31.0188 10.7188 31.2 10.275 31.2 9.75C31.2 9.225 31.0188 8.78125 30.6563 8.41875C30.2938 8.05625 29.85 7.875 29.325 7.875C28.8 7.875 28.3563 8.05625 27.9938 8.41875C27.6313 8.78125 27.45 9.225 27.45 9.75C27.45 10.275 27.6313 10.7188 27.9938 11.0813C28.3563 11.4438 28.8 11.625 29.325 11.625Z" fill="#1C1B1F"/>
</g>
</g>
</svg>
